<svg width="142" height="27" viewBox="0 0 142 27" fill="none" xmlns="http://www.w3.org/2000/svg">
<g filter="url(#filter0_d_2113_329)">
<path d="M4.77588 18V1.19999H9.93588C12.8959 1.19999 15.0719 1.95199 16.4639 3.45599C17.8719 4.95999 18.5759 7.02399 18.5759 9.64799C18.5759 12.224 17.8719 14.264 16.4639 15.768C15.0719 17.256 12.8959 18 9.93588 18H4.77588ZM6.79188 16.32H9.88788C11.5199 16.32 12.8159 16.056 13.7759 15.528C14.7519 14.984 15.4479 14.216 15.8639 13.224C16.2799 12.216 16.4879 11.024 16.4879 9.64799C16.4879 8.23999 16.2799 7.03199 15.8639 6.02399C15.4479 5.01599 14.7519 4.23999 13.7759 3.69599C12.8159 3.15199 11.5199 2.87999 9.88788 2.87999H6.79188V16.32Z" fill="#061800"/>
<path d="M27.2708 18.288C26.1508 18.288 25.1428 18.032 24.2468 17.52C23.3508 17.008 22.6388 16.288 22.1108 15.36C21.5988 14.416 21.3428 13.312 21.3428 12.048C21.3428 10.784 21.6068 9.68799 22.1348 8.75999C22.6628 7.81599 23.3748 7.08799 24.2708 6.57599C25.1828 6.06399 26.1988 5.80799 27.3188 5.80799C28.4388 5.80799 29.4468 6.06399 30.3428 6.57599C31.2388 7.08799 31.9428 7.81599 32.4548 8.75999C32.9828 9.68799 33.2468 10.784 33.2468 12.048C33.2468 13.312 32.9828 14.416 32.4548 15.36C31.9268 16.288 31.2068 17.008 30.2948 17.52C29.3988 18.032 28.3908 18.288 27.2708 18.288ZM27.2708 16.56C27.9588 16.56 28.5988 16.392 29.1908 16.056C29.7828 15.72 30.2628 15.216 30.6308 14.544C30.9988 13.872 31.1828 13.04 31.1828 12.048C31.1828 11.056 30.9988 10.224 30.6308 9.55199C30.2788 8.87999 29.8068 8.37599 29.2148 8.03999C28.6228 7.70399 27.9908 7.53599 27.3188 7.53599C26.6308 7.53599 25.9908 7.70399 25.3988 8.03999C24.8068 8.37599 24.3268 8.87999 23.9588 9.55199C23.5908 10.224 23.4068 11.056 23.4068 12.048C23.4068 13.04 23.5908 13.872 23.9588 14.544C24.3268 15.216 24.7988 15.72 25.3748 16.056C25.9668 16.392 26.5988 16.56 27.2708 16.56Z" fill="#061800"/>
<path d="M42.0019 18.288C40.8659 18.288 39.8419 18.032 38.9299 17.52C38.0339 16.992 37.3219 16.264 36.7939 15.336C36.2819 14.392 36.0259 13.296 36.0259 12.048C36.0259 10.8 36.2819 9.71199 36.7939 8.78399C37.3219 7.83999 38.0339 7.11199 38.9299 6.59999C39.8419 6.07199 40.8659 5.80799 42.0019 5.80799C43.4099 5.80799 44.5939 6.17599 45.5539 6.91199C46.5299 7.64799 47.1459 8.63199 47.4019 9.86399H45.3379C45.1779 9.12799 44.7859 8.55999 44.1619 8.15999C43.5379 7.74399 42.8099 7.53599 41.9779 7.53599C41.3059 7.53599 40.6739 7.70399 40.0819 8.03999C39.4899 8.37599 39.0099 8.87999 38.6419 9.55199C38.2739 10.224 38.0899 11.056 38.0899 12.048C38.0899 13.04 38.2739 13.872 38.6419 14.544C39.0099 15.216 39.4899 15.728 40.0819 16.08C40.6739 16.416 41.3059 16.584 41.9779 16.584C42.8099 16.584 43.5379 16.384 44.1619 15.984C44.7859 15.568 45.1779 14.984 45.3379 14.232H47.4019C47.1619 15.432 46.5539 16.408 45.5779 17.16C44.6019 17.912 43.4099 18.288 42.0019 18.288Z" fill="#061800"/>
<path d="M55.0733 18C53.9853 18 53.1293 17.736 52.5053 17.208C51.8813 16.68 51.5693 15.728 51.5693 14.352V7.79999H49.5053V6.09599H51.5693L51.8333 3.23999H53.5853V6.09599H57.0893V7.79999H53.5853V14.352C53.5853 15.104 53.7373 15.616 54.0413 15.888C54.3453 16.144 54.8813 16.272 55.6493 16.272H56.8973V18H55.0733Z" fill="#061800"/>
<path d="M65.2264 18.288C64.1064 18.288 63.0984 18.032 62.2024 17.52C61.3064 17.008 60.5944 16.288 60.0664 15.36C59.5544 14.416 59.2984 13.312 59.2984 12.048C59.2984 10.784 59.5624 9.68799 60.0904 8.75999C60.6184 7.81599 61.3304 7.08799 62.2264 6.57599C63.1384 6.06399 64.1544 5.80799 65.2744 5.80799C66.3944 5.80799 67.4024 6.06399 68.2984 6.57599C69.1944 7.08799 69.8984 7.81599 70.4104 8.75999C70.9384 9.68799 71.2024 10.784 71.2024 12.048C71.2024 13.312 70.9384 14.416 70.4104 15.36C69.8824 16.288 69.1624 17.008 68.2504 17.52C67.3544 18.032 66.3464 18.288 65.2264 18.288ZM65.2264 16.56C65.9144 16.56 66.5544 16.392 67.1464 16.056C67.7384 15.72 68.2184 15.216 68.5864 14.544C68.9544 13.872 69.1384 13.04 69.1384 12.048C69.1384 11.056 68.9544 10.224 68.5864 9.55199C68.2344 8.87999 67.7624 8.37599 67.1704 8.03999C66.5784 7.70399 65.9464 7.53599 65.2744 7.53599C64.5864 7.53599 63.9464 7.70399 63.3544 8.03999C62.7624 8.37599 62.2824 8.87999 61.9144 9.55199C61.5464 10.224 61.3624 11.056 61.3624 12.048C61.3624 13.04 61.5464 13.872 61.9144 14.544C62.2824 15.216 62.7544 15.72 63.3304 16.056C63.9224 16.392 64.5544 16.56 65.2264 16.56Z" fill="#061800"/>
<path d="M74.4856 18V6.09599H76.3096L76.4776 8.37599C76.8456 7.59199 77.4056 6.96799 78.1576 6.50399C78.9096 6.03999 79.8376 5.80799 80.9416 5.80799V7.91999H80.3896C79.6856 7.91999 79.0376 8.04799 78.4456 8.30399C77.8536 8.54399 77.3816 8.95999 77.0296 9.55199C76.6776 10.144 76.5016 10.96 76.5016 12V18H74.4856Z" fill="#061800"/>
<path d="M91.2683 18.288C89.5723 18.288 88.1163 17.928 86.9003 17.208C85.6843 16.472 84.7483 15.456 84.0923 14.16C83.4363 12.848 83.1083 11.336 83.1083 9.62399C83.1083 7.91199 83.4363 6.39999 84.0923 5.08799C84.7483 3.77599 85.6843 2.75199 86.9003 2.01599C88.1163 1.27999 89.5723 0.911987 91.2683 0.911987C93.2843 0.911987 94.9323 1.41599 96.2123 2.42399C97.5083 3.41599 98.3163 4.81599 98.6363 6.62399H95.2523C95.0443 5.71199 94.5963 4.99999 93.9083 4.48799C93.2363 3.95999 92.3403 3.69599 91.2203 3.69599C89.6683 3.69599 88.4523 4.22399 87.5723 5.27999C86.6923 6.33599 86.2523 7.78399 86.2523 9.62399C86.2523 11.464 86.6923 12.912 87.5723 13.968C88.4523 15.008 89.6683 15.528 91.2203 15.528C92.3403 15.528 93.2363 15.288 93.9083 14.808C94.5963 14.312 95.0443 13.632 95.2523 12.768H98.6363C98.3163 14.496 97.5083 15.848 96.2123 16.824C94.9323 17.8 93.2843 18.288 91.2683 18.288Z" fill="#1971C2"/>
<path d="M105.868 18.288C104.844 18.288 104.004 18.128 103.348 17.808C102.692 17.472 102.204 17.032 101.884 16.488C101.564 15.944 101.404 15.344 101.404 14.688C101.404 13.584 101.836 12.688 102.7 12C103.564 11.312 104.86 10.968 106.588 10.968H109.612V10.68C109.612 9.86399 109.38 9.26399 108.916 8.87999C108.452 8.49599 107.876 8.30399 107.188 8.30399C106.564 8.30399 106.02 8.45599 105.556 8.75999C105.092 9.04799 104.804 9.47999 104.692 10.056H101.692C101.772 9.19199 102.06 8.43999 102.556 7.79999C103.068 7.15999 103.724 6.67199 104.524 6.33599C105.324 5.98399 106.22 5.80799 107.212 5.80799C108.908 5.80799 110.244 6.23199 111.22 7.07999C112.196 7.92799 112.684 9.12799 112.684 10.68V18H110.068L109.78 16.08C109.428 16.72 108.932 17.248 108.292 17.664C107.668 18.08 106.86 18.288 105.868 18.288ZM106.564 15.888C107.444 15.888 108.124 15.6 108.604 15.024C109.1 14.448 109.412 13.736 109.54 12.888H106.924C106.108 12.888 105.524 13.04 105.172 13.344C104.82 13.632 104.644 13.992 104.644 14.424C104.644 14.888 104.82 15.248 105.172 15.504C105.524 15.76 105.988 15.888 106.564 15.888Z" fill="#1971C2"/>
<path d="M116.095 18V6.09599H118.831L119.119 8.32799C119.551 7.55999 120.135 6.95199 120.871 6.50399C121.623 6.03999 122.503 5.80799 123.511 5.80799V9.04799H122.647C121.975 9.04799 121.375 9.15199 120.847 9.35999C120.319 9.56799 119.903 9.92799 119.599 10.44C119.311 10.952 119.167 11.664 119.167 12.576V18H116.095Z" fill="#1971C2"/>
<path d="M131.664 18.288C130.464 18.288 129.4 18.032 128.472 17.52C127.544 17.008 126.816 16.288 126.288 15.36C125.76 14.432 125.496 13.36 125.496 12.144C125.496 10.912 125.752 9.81599 126.264 8.85599C126.792 7.89599 127.512 7.15199 128.424 6.62399C129.352 6.07999 130.44 5.80799 131.688 5.80799C132.856 5.80799 133.888 6.06399 134.784 6.57599C135.68 7.08799 136.376 7.79199 136.872 8.68799C137.384 9.56799 137.64 10.552 137.64 11.64C137.64 11.816 137.632 12 137.616 12.192C137.616 12.384 137.608 12.584 137.592 12.792H128.544C128.608 13.72 128.928 14.448 129.504 14.976C130.096 15.504 130.808 15.768 131.64 15.768C132.264 15.768 132.784 15.632 133.2 15.36C133.632 15.072 133.952 14.704 134.16 14.256H137.28C137.056 15.008 136.68 15.696 136.152 16.32C135.64 16.928 135 17.408 134.232 17.76C133.48 18.112 132.624 18.288 131.664 18.288ZM131.688 8.30399C130.936 8.30399 130.272 8.51999 129.696 8.95199C129.12 9.36799 128.752 10.008 128.592 10.872H134.52C134.472 10.088 134.184 9.46399 133.656 8.99999C133.128 8.53599 132.472 8.30399 131.688 8.30399Z" fill="#1971C2"/>
</g>
<defs>
<filter id="filter0_d_2113_329" x="0.775879" y="0.911987" width="140.864" height="25.376" filterUnits="userSpaceOnUse" color-interpolation-filters="sRGB">
<feFlood flood-opacity="0" result="BackgroundImageFix"/>
<feColorMatrix in="SourceAlpha" type="matrix" values="0 0 0 0 0 0 0 0 0 0 0 0 0 0 0 0 0 0 127 0" result="hardAlpha"/>
<feOffset dy="4"/>
<feGaussianBlur stdDeviation="2"/>
<feComposite in2="hardAlpha" operator="out"/>
<feColorMatrix type="matrix" values="0 0 0 0 0 0 0 0 0 0 0 0 0 0 0 0 0 0 0.25 0"/>
<feBlend mode="normal" in2="BackgroundImageFix" result="effect1_dropShadow_2113_329"/>
<feBlend mode="normal" in="SourceGraphic" in2="effect1_dropShadow_2113_329" result="shape"/>
</filter>
</defs>
</svg>
